<mxfile host="Electron" agent="Mozilla/5.0 (Windows NT 10.0; Win64; x64) AppleWebKit/537.36 (KHTML, like Gecko) draw.io/25.0.2 Chrome/128.0.6613.186 Electron/32.2.5 Safari/537.36" version="25.0.2" pages="3">
  <diagram name="Cluster Mode 作业提交" id="pZrtif1T7AlgdI-n30Bs">
    <mxGraphModel dx="3086" dy="405" grid="1" gridSize="10" guides="1" tooltips="1" connect="1" arrows="1" fold="1" page="0" pageScale="1" pageWidth="827" pageHeight="1169" math="0" shadow="0">
      <root>
        <mxCell id="0" />
        <mxCell id="1" parent="0" />
        <mxCell id="D6HpPT0l7rFkdYNjzGSY-1" value="Zeta Cluster Mode" style="rounded=0;whiteSpace=wrap;html=1;fontFamily=Comic Sans MS;fontSize=13;" vertex="1" parent="1">
          <mxGeometry x="-300" y="820" width="310" height="90" as="geometry" />
        </mxCell>
        <mxCell id="D6HpPT0l7rFkdYNjzGSY-3" style="edgeStyle=orthogonalEdgeStyle;rounded=0;orthogonalLoop=1;jettySize=auto;html=1;fontFamily=Comic Sans MS;fontSize=13;entryX=0.5;entryY=0;entryDx=0;entryDy=0;entryPerimeter=0;fillColor=#ffe6cc;strokeColor=#d79b00;" edge="1" parent="1" source="D6HpPT0l7rFkdYNjzGSY-2" target="D6HpPT0l7rFkdYNjzGSY-1">
          <mxGeometry relative="1" as="geometry">
            <mxPoint x="-145" y="420" as="targetPoint" />
          </mxGeometry>
        </mxCell>
        <mxCell id="D6HpPT0l7rFkdYNjzGSY-2" value="submit a job" style="rounded=0;whiteSpace=wrap;html=1;fontFamily=Comic Sans MS;fontSize=13;" vertex="1" parent="1">
          <mxGeometry x="-205" y="480" width="120" height="60" as="geometry" />
        </mxCell>
        <mxCell id="D6HpPT0l7rFkdYNjzGSY-4" value="nohup sh bin/seatunnel-cluster.sh 2&amp;gt;&amp;amp;1 &amp;amp;" style="rounded=0;whiteSpace=wrap;html=1;fillColor=#dae8fc;strokeColor=#6c8ebf;fontFamily=Comic Sans MS;fontSize=13;" vertex="1" parent="1">
          <mxGeometry x="-140" y="890" width="290" height="30" as="geometry" />
        </mxCell>
        <mxCell id="D6HpPT0l7rFkdYNjzGSY-5" value="&lt;div style=&quot;font-size: 13px; line-height: 21px; white-space: pre;&quot;&gt;./bin/seatunnel.sh --config&lt;span style=&quot;white-space: normal;&quot;&gt;&amp;nbsp;&lt;/span&gt;./job/&lt;span style=&quot;background-color: initial;&quot;&gt;01-v2.streaming.mysql2console.conf.template&lt;/span&gt;&lt;span style=&quot;background-color: initial;&quot;&gt; &lt;/span&gt;&lt;br&gt;&lt;/div&gt;" style="rounded=0;whiteSpace=wrap;html=1;fillColor=#dae8fc;strokeColor=#6c8ebf;fontColor=default;labelBackgroundColor=none;fontFamily=Comic Sans MS;fontSize=13;" vertex="1" parent="1">
          <mxGeometry x="-205" y="530" width="490" height="30" as="geometry" />
        </mxCell>
        <mxCell id="D6HpPT0l7rFkdYNjzGSY-6" value="" style="shape=flexArrow;endArrow=classic;html=1;rounded=0;fontFamily=Comic Sans MS;fontSize=13;fillColor=#ffe6cc;strokeColor=#d79b00;" edge="1" parent="1">
          <mxGeometry width="50" height="50" relative="1" as="geometry">
            <mxPoint x="290" y="544.5" as="sourcePoint" />
            <mxPoint x="400" y="545" as="targetPoint" />
          </mxGeometry>
        </mxCell>
        <mxCell id="D6HpPT0l7rFkdYNjzGSY-7" value="&lt;div style=&quot;font-size: 13px;&quot;&gt;[root@vm01 bin]# ./seatunnel.sh --config ../job/01-v2.streaming.mysql2console.conf.template&amp;nbsp;&lt;/div&gt;&lt;div style=&quot;font-size: 13px;&quot;&gt;&lt;br style=&quot;font-size: 13px;&quot;&gt;&lt;/div&gt;&lt;div style=&quot;font-size: 13px;&quot;&gt;java&amp;nbsp; -Dhazelcast.client.config=/root/yzhou/seatunnel/apache-seatunnel-2.3.4/config/hazelcast-client.yaml -Dseatunnel.config=/root/yzhou/seatunnel/apache-seatunnel-2.3.4/config/seatunnel.yaml -Dhazelcast.config=/root/yzhou/seatunnel/apache-seatunnel-2.3.4/config/hazelcast.yaml -Dlog4j2.configurationFile=/root/yzhou/seatunnel/apache-seatunnel-2.3.4/config/log4j2_client.properties -Dseatunnel.logs.path=/root/yzhou/seatunnel/apache-seatunnel-2.3.4/logs -Dseatunnel.logs.file_name=seatunnel-starter-client -Xms256m -Xmx512m -XX:+HeapDumpOnOutOfMemoryError -cp /root/yzhou/seatunnel/apache-seatunnel-2.3.4/lib/*:/root/yzhou/seatunnel/apache-seatunnel-2.3.4/starter/seatunnel-starter.jar org.apache.seatunnel.core.starter.seatunnel.SeaTunnelClient --config ../job/01-v2.streaming.mysql2console.conf.template&lt;/div&gt;" style="rounded=0;whiteSpace=wrap;html=1;align=left;verticalAlign=top;fontFamily=Comic Sans MS;fontSize=13;" vertex="1" parent="1">
          <mxGeometry x="410" y="515" width="890" height="175" as="geometry" />
        </mxCell>
        <mxCell id="D6HpPT0l7rFkdYNjzGSY-8" value="打印 提交任务是 完整的执行 命令" style="text;html=1;align=center;verticalAlign=middle;whiteSpace=wrap;rounded=0;fontStyle=1;fontFamily=Comic Sans MS;fontSize=13;" vertex="1" parent="1">
          <mxGeometry x="410" y="480" width="230" height="30" as="geometry" />
        </mxCell>
        <mxCell id="D6HpPT0l7rFkdYNjzGSY-11" value="hazelcast-client.yaml" style="rounded=0;whiteSpace=wrap;html=1;fillColor=#d5e8d4;strokeColor=#82b366;fontFamily=Comic Sans MS;fontSize=13;" vertex="1" parent="1">
          <mxGeometry x="-130" y="600" width="160" height="40" as="geometry" />
        </mxCell>
        <mxCell id="D6HpPT0l7rFkdYNjzGSY-12" value="Zeta Cluster Mode" style="rounded=0;whiteSpace=wrap;html=1;fontFamily=Comic Sans MS;fontSize=13;" vertex="1" parent="1">
          <mxGeometry x="-1040" y="820" width="310" height="90" as="geometry" />
        </mxCell>
        <mxCell id="D6HpPT0l7rFkdYNjzGSY-13" style="edgeStyle=orthogonalEdgeStyle;rounded=0;orthogonalLoop=1;jettySize=auto;html=1;fontFamily=Comic Sans MS;fontSize=13;entryX=0.5;entryY=0;entryDx=0;entryDy=0;entryPerimeter=0;fillColor=#ffe6cc;strokeColor=#d79b00;" edge="1" parent="1" source="D6HpPT0l7rFkdYNjzGSY-14" target="D6HpPT0l7rFkdYNjzGSY-12">
          <mxGeometry relative="1" as="geometry">
            <mxPoint x="-885" y="420" as="targetPoint" />
          </mxGeometry>
        </mxCell>
        <mxCell id="D6HpPT0l7rFkdYNjzGSY-14" value="submit a job" style="rounded=0;whiteSpace=wrap;html=1;fontFamily=Comic Sans MS;fontSize=13;" vertex="1" parent="1">
          <mxGeometry x="-945" y="650" width="120" height="60" as="geometry" />
        </mxCell>
        <mxCell id="D6HpPT0l7rFkdYNjzGSY-15" value="nohup sh bin/seatunnel-cluster.sh 2&amp;gt;&amp;amp;1 &amp;amp;" style="rounded=0;whiteSpace=wrap;html=1;fillColor=#dae8fc;strokeColor=#6c8ebf;fontFamily=Comic Sans MS;fontSize=13;" vertex="1" parent="1">
          <mxGeometry x="-880" y="890" width="290" height="30" as="geometry" />
        </mxCell>
        <mxCell id="D6HpPT0l7rFkdYNjzGSY-16" value="&lt;div style=&quot;line-height: 21px;&quot;&gt;&lt;span style=&quot;white-space: pre;&quot;&gt;./bin/seatunnel.sh &lt;/span&gt;&lt;span style=&quot;font-size: 13px; white-space: pre;&quot;&gt;--config&lt;/span&gt; &lt;span style=&quot;font-size: 13px; white-space: pre;&quot;&gt;./job/&lt;/span&gt;&lt;span style=&quot;background-color: initial; white-space: pre;&quot;&gt;01-v2.streaming.mysql2console.conf.template&lt;/span&gt;&lt;span style=&quot;font-size: 13px; white-space: pre; background-color: initial;&quot;&gt; &lt;/span&gt;&lt;/div&gt;" style="rounded=0;whiteSpace=wrap;html=1;fillColor=#dae8fc;strokeColor=#6c8ebf;fontColor=default;labelBackgroundColor=none;fontFamily=Comic Sans MS;fontSize=13;" vertex="1" parent="1">
          <mxGeometry x="-870" y="700" width="510" height="30" as="geometry" />
        </mxCell>
      </root>
    </mxGraphModel>
  </diagram>
  <diagram id="ap1rBoejMGHXoUDPZJEy" name="第 2 页">
    <mxGraphModel dx="2218" dy="1205" grid="1" gridSize="10" guides="1" tooltips="1" connect="1" arrows="1" fold="1" page="0" pageScale="1" pageWidth="827" pageHeight="1169" math="0" shadow="0">
      <root>
        <mxCell id="0" />
        <mxCell id="1" parent="0" />
        <mxCell id="ZarxvyxtcrY4zUGe8Qxa-1" value="1. 确认 Seatunnel Connectors Jars的路径" style="rounded=0;whiteSpace=wrap;html=1;fontFamily=Comic Sans MS;fontSize=13;" vertex="1" parent="1">
          <mxGeometry x="-330" y="40" width="410" height="40" as="geometry" />
        </mxCell>
        <mxCell id="ZarxvyxtcrY4zUGe8Qxa-2" value="Client" style="rounded=0;whiteSpace=wrap;html=1;fontFamily=Comic Sans MS;fontSize=13;" vertex="1" parent="1">
          <mxGeometry x="-225" y="-130" width="200" height="40" as="geometry" />
        </mxCell>
        <mxCell id="ZarxvyxtcrY4zUGe8Qxa-3" value="解析 Config， 得到&amp;nbsp;&lt;span style=&quot;font-size: 13px; white-space: pre;&quot;&gt;PluginIdentifier&lt;/span&gt;" style="rounded=0;whiteSpace=wrap;html=1;fontColor=default;labelBackgroundColor=none;fontFamily=Comic Sans MS;fontSize=13;" vertex="1" parent="1">
          <mxGeometry x="180" y="-50" width="270" height="40" as="geometry" />
        </mxCell>
        <mxCell id="ZarxvyxtcrY4zUGe8Qxa-6" value="" style="endArrow=classic;html=1;rounded=0;exitX=1;exitY=0.5;exitDx=0;exitDy=0;entryX=0;entryY=0;entryDx=0;entryDy=0;fontFamily=Comic Sans MS;fontSize=13;" edge="1" parent="1" source="ZarxvyxtcrY4zUGe8Qxa-2" target="ZarxvyxtcrY4zUGe8Qxa-3">
          <mxGeometry width="50" height="50" relative="1" as="geometry">
            <mxPoint x="160" y="70" as="sourcePoint" />
            <mxPoint x="210" y="20" as="targetPoint" />
          </mxGeometry>
        </mxCell>
        <mxCell id="ZarxvyxtcrY4zUGe8Qxa-7" value="" style="endArrow=classic;html=1;rounded=0;exitX=0;exitY=1;exitDx=0;exitDy=0;entryX=1;entryY=0;entryDx=0;entryDy=0;fontFamily=Comic Sans MS;fontSize=13;" edge="1" parent="1" source="ZarxvyxtcrY4zUGe8Qxa-3" target="ZarxvyxtcrY4zUGe8Qxa-1">
          <mxGeometry width="50" height="50" relative="1" as="geometry">
            <mxPoint x="-15" y="-100" as="sourcePoint" />
            <mxPoint x="190" y="-40" as="targetPoint" />
          </mxGeometry>
        </mxCell>
        <mxCell id="ZarxvyxtcrY4zUGe8Qxa-8" value="" style="endArrow=classic;html=1;rounded=0;fontFamily=Comic Sans MS;fontSize=13;" edge="1" parent="1">
          <mxGeometry width="50" height="50" relative="1" as="geometry">
            <mxPoint x="-125.5" y="80" as="sourcePoint" />
            <mxPoint x="-125" y="140" as="targetPoint" />
          </mxGeometry>
        </mxCell>
        <mxCell id="ZarxvyxtcrY4zUGe8Qxa-9" value="结合 PluginIdentifier" style="text;html=1;align=center;verticalAlign=middle;whiteSpace=wrap;rounded=0;fontFamily=Comic Sans MS;fontSize=13;" vertex="1" parent="1">
          <mxGeometry x="-120" y="100" width="150" height="30" as="geometry" />
        </mxCell>
        <mxCell id="ZarxvyxtcrY4zUGe8Qxa-10" value="Set&amp;lt;URL&amp;gt;" style="rounded=0;whiteSpace=wrap;html=1;fontFamily=Comic Sans MS;fontSize=13;" vertex="1" parent="1">
          <mxGeometry x="-185" y="150" width="120" height="50" as="geometry" />
        </mxCell>
        <mxCell id="ZarxvyxtcrY4zUGe8Qxa-11" value="Seatunnel Server" style="rounded=0;whiteSpace=wrap;html=1;fontFamily=Comic Sans MS;fontSize=13;" vertex="1" parent="1">
          <mxGeometry x="-435" y="400" width="620" height="60" as="geometry" />
        </mxCell>
        <mxCell id="ZarxvyxtcrY4zUGe8Qxa-12" value="Start submit job, job id: 830892155647033345, with plugin jar [file:/root/yzhou/seatunnel/apache-seatunnel-2.3.4/connectors/connector-jdbc-2.3.4.jar, file:/root/yzhou/seatunnel/apache-seatunnel-2.3.4/connectors/connector-console-2.3.4.jar]" style="text;html=1;align=center;verticalAlign=middle;whiteSpace=wrap;rounded=0;fontFamily=Comic Sans MS;fontSize=13;" vertex="1" parent="1">
          <mxGeometry x="-170" y="250" width="850" height="60" as="geometry" />
        </mxCell>
      </root>
    </mxGraphModel>
  </diagram>
  <diagram id="aHdQyJi3QFVlvi1CtOUC" name="第 3 页">
    <mxGraphModel dx="2234" dy="854" grid="1" gridSize="10" guides="1" tooltips="1" connect="1" arrows="1" fold="1" page="0" pageScale="1" pageWidth="827" pageHeight="1169" math="0" shadow="0">
      <root>
        <mxCell id="0" />
        <mxCell id="1" parent="0" />
        <mxCell id="I0TGORLR1Xnx5Ehxflcv-5" value="" style="endArrow=classic;html=1;rounded=0;fontSize=12;fontFamily=Helvetica;" edge="1" parent="1">
          <mxGeometry width="50" height="50" relative="1" as="geometry">
            <mxPoint x="420" y="130" as="sourcePoint" />
            <mxPoint x="420" y="740" as="targetPoint" />
          </mxGeometry>
        </mxCell>
        <mxCell id="I0TGORLR1Xnx5Ehxflcv-8" style="edgeStyle=orthogonalEdgeStyle;rounded=0;orthogonalLoop=1;jettySize=auto;html=1;fontSize=12;fontFamily=Helvetica;" edge="1" parent="1">
          <mxGeometry relative="1" as="geometry">
            <mxPoint x="-40" y="240" as="targetPoint" />
            <mxPoint x="-40" y="190" as="sourcePoint" />
          </mxGeometry>
        </mxCell>
        <mxCell id="I0TGORLR1Xnx5Ehxflcv-6" value="seatunnel" style="rounded=1;whiteSpace=wrap;html=1;fontSize=12;fontFamily=Helvetica;" vertex="1" parent="1">
          <mxGeometry x="-110" y="130" width="140" height="50" as="geometry" />
        </mxCell>
        <mxCell id="I0TGORLR1Xnx5Ehxflcv-7" value="&lt;div style=&quot;color: rgb(8, 8, 8);&quot;&gt;&lt;span style=&quot;color: rgb(0, 0, 0);&quot;&gt;APP_MAIN&lt;/span&gt;=&lt;span style=&quot;color: rgb(6, 125, 23);&quot;&gt;&quot;org.apache.seatunnel.core.starter.flink.FlinkStarter&quot;&lt;/span&gt;&lt;/div&gt;" style="rounded=1;whiteSpace=wrap;html=1;fontSize=12;fontFamily=Helvetica;" vertex="1" parent="1">
          <mxGeometry x="-277.5" y="250" width="475" height="50" as="geometry" />
        </mxCell>
        <mxCell id="I0TGORLR1Xnx5Ehxflcv-9" value="&lt;div data-lark-html-role=&quot;root&quot;&gt;&lt;span class=&quot;text-only&quot; data-eleid=&quot;3&quot; style=&quot;white-space: pre;&quot;&gt;./flink run -c org.apache.seatunnel.core.starter.flink.SeaTunnelFlink /opt/soft/apache-seatunnel-2.3.5/starter/seatunnel-flink-15-starter.jar&lt;/span&gt;&lt;/div&gt;&lt;div data-lark-html-role=&quot;root&quot;&gt;&lt;span class=&quot;text-only&quot; data-eleid=&quot;3&quot; style=&quot;white-space: pre;&quot;&gt; --config /tmp/dolphinscheduler/exec/process/zhouyang_w/10986792794592/15091555245440_170/277225/2166696/seatunnel_277225_2166696.conf &lt;/span&gt;&lt;/div&gt;&lt;div data-lark-html-role=&quot;root&quot;&gt;&lt;span class=&quot;text-only&quot; data-eleid=&quot;3&quot; style=&quot;white-space: pre;&quot;&gt;--name SeaTunnel&lt;/span&gt;&lt;/div&gt;" style="rounded=1;whiteSpace=wrap;html=1;fontSize=12;fontFamily=Helvetica;" vertex="1" parent="1">
          <mxGeometry x="-465" y="420" width="850" height="80" as="geometry" />
        </mxCell>
        <mxCell id="I0TGORLR1Xnx5Ehxflcv-10" style="edgeStyle=orthogonalEdgeStyle;rounded=0;orthogonalLoop=1;jettySize=auto;html=1;fontSize=12;fontFamily=Helvetica;" edge="1" parent="1">
          <mxGeometry relative="1" as="geometry">
            <mxPoint x="-40" y="400" as="targetPoint" />
            <mxPoint x="-40" y="320" as="sourcePoint" />
          </mxGeometry>
        </mxCell>
        <mxCell id="I0TGORLR1Xnx5Ehxflcv-11" value="&lt;div&gt;&lt;div&gt;&lt;div style=&quot;color: rgb(8, 8, 8);&quot;&gt;&lt;div&gt;&lt;span style=&quot;color:#000000;&quot;&gt;CMD&lt;/span&gt;=&lt;span style=&quot;color:#0033b3;&quot;&gt;$&lt;/span&gt;&lt;span style=&quot;color:#0073bf;&quot;&gt;(java &lt;/span&gt;&lt;span style=&quot;color:#0033b3;&quot;&gt;$&lt;/span&gt;{JAVA_OPTS} -cp &lt;span style=&quot;color:#0033b3;&quot;&gt;$&lt;/span&gt;{CLASS_PATH} &lt;span style=&quot;color:#0033b3;&quot;&gt;$&lt;/span&gt;{APP_MAIN} &lt;span style=&quot;color:#0033b3;&quot;&gt;$&lt;/span&gt;{args}&lt;span style=&quot;color:#0073bf;&quot;&gt;) &lt;/span&gt;&lt;span style=&quot;color:#0033b3;&quot;&gt;&amp;amp;&amp;amp; &lt;/span&gt;&lt;span style=&quot;color:#000000;&quot;&gt;EXIT_CODE&lt;/span&gt;=&lt;span style=&quot;color:#000000;&quot;&gt;$? &lt;/span&gt;&lt;span style=&quot;color:#0033b3;&quot;&gt;|| &lt;/span&gt;&lt;span style=&quot;color:#000000;&quot;&gt;EXIT_CODE&lt;/span&gt;=&lt;span style=&quot;color:#000000;&quot;&gt;$?&lt;/span&gt;&lt;/div&gt;&lt;/div&gt;&lt;/div&gt;&lt;/div&gt;" style="text;html=1;align=center;verticalAlign=middle;whiteSpace=wrap;rounded=0;fillColor=default;fontSize=12;fontFamily=Helvetica;" vertex="1" parent="1">
          <mxGeometry x="-330" y="340" width="660" height="40" as="geometry" />
        </mxCell>
      </root>
    </mxGraphModel>
  </diagram>
</mxfile>
